<?xml version="1.0" encoding="UTF-8" standalone="no"?>
<!-- Created with Inkscape (http://www.inkscape.org/) -->

<svg
   width="512"
   height="512"
   viewBox="0 0 135.46667 135.46667"
   version="1.1"
   id="svg1"
   xml:space="preserve"
   xmlns="http://www.w3.org/2000/svg"
   xmlns:svg="http://www.w3.org/2000/svg"><defs
     id="defs1" /><g
     id="layer1"
     transform="matrix(0.69601363,0,0,0.69601363,-6.1337193,-34.604559)"><ellipse
       style="fill:#bb86fc;fill-opacity:1;stroke-width:0.0773452"
       id="path4"
       cx="148.5"
       cy="-94.53405"
       rx="53.203335"
       ry="67.375786"
       transform="rotate(90)" /><path
       id="path5"
       style="fill:#bb86fc;fill-opacity:1;stroke-width:0.0559061"
       d="m 181.5904,148.49994 a 9.8403064,20.34222 0 0 0 -9.8402,-20.34215 h -13.04453 v 40.68445 h 13.04453 a 9.8403064,20.34222 0 0 0 9.8402,-20.3423 z" /><path
       id="path1"
       style="fill:#000000;stroke-width:0.394213"
       d="m 201.37667,183.06286 c -0.0337,-1.68899 -0.72553,-3.3906 -2.17302,-4.70051 -1.18033,-1.06813 -2.64799,-1.62227 -4.30449,-1.62503 -2.31846,-0.004 -4.54525,-0.34381 -5.9226,-0.90348 -1.86992,-0.75981 -3.06548,-2.09312 -3.72187,-4.15048 -0.43168,-1.35309 -0.56967,-2.38456 -0.57243,-4.27943 l -0.002,-1.66884 0.4278,-0.73011 c 4.06758,-6.94196 5.38807,-15.52714 3.6178,-23.52008 -0.66404,-2.99821 -1.86799,-6.188 -3.28735,-8.70921 -0.41547,-0.73802 -0.48636,-0.96093 -0.61399,-1.92958 -0.17834,-1.35508 -0.17958,-3.84137 -0.002,-4.95434 0.18535,-1.16378 0.66182,-2.59066 1.12735,-3.37596 1.38516,-2.33659 4.32717,-3.45265 9.10707,-3.45541 1.69077,-8e-4 3.16609,-0.6402 4.42876,-1.9192 1.32148,-1.33856 1.86785,-2.66894 1.86785,-4.54793 0,-1.86849 -0.58395,-3.26814 -1.9145,-4.58928 -1.68834,-1.67639 -3.1678,-2.08537 -6.80693,-1.8813 -5.22251,0.29286 -9.30566,1.60288 -12.79552,4.10505 -1.04091,0.74631 -2.62456,2.23744 -3.45378,3.2521 -1.23651,1.51305 -2.54448,3.82756 -3.18304,5.6323 -0.16237,0.45893 -0.30571,0.84891 -0.3184,0.86681 -0.0127,0.0179 -0.41523,-0.17896 -0.89451,-0.43758 -4.03313,-2.17626 -8.88183,-3.50521 -13.76968,-3.77381 l -1.32069,-0.0725 -0.5046,-0.73907 c -2.18848,-3.20615 -5.34119,-6.83289 -8.24005,-9.47864 -2.49656,-2.27859 -4.44833,-3.80465 -7.10129,-5.552247 -0.86091,-0.5671 -1.382,-0.97613 -1.382,-1.08498 0,-0.0961 -0.16096,-0.72137 -0.35752,-1.38933 -1.32066,-4.48815 -1.7087,-9.88678 -1.04098,-14.47923 0.88797,-6.10723 3.27413,-11.32106 7.31295,-15.97855 1.57166,-1.81242 3.13188,-3.2195 6.33349,-5.71237 2.1316,-1.65973 2.97388,-4.75086 1.99986,-7.33861 -1.37089,-3.64214 -5.58207,-5.27448 -9.05471,-3.5098 -0.78782,0.40034 -2.69393,1.84594 -4.39555,3.33358 -3.51473,3.07276 -6.58526,6.63339 -8.86077,10.27496 -1.07642,1.72265 -2.79095,5.11277 -3.50776,6.93608 -2.40269,6.11153 -3.4909,12.78509 -3.14311,19.27507 0.0687,1.28298 0.15053,2.39938 0.18171,2.48063 0.071,0.18508 0.20181,0.19999 -1.37935,-0.1593 -1.6538,-0.37579 -4.08007,-0.77894 -6.09596,-1.01307 -1.27165,-0.1477 -2.92765,-0.18231 -10.40411,-0.21696 l -8.891745,-0.0411 -0.002,-13.73505 c -0.002,-15.19529 0.0291,-14.4658 -0.68122,-15.94251 -0.26422,-0.54933 -0.60794,-1.02639 -1.14162,-1.58388 -0.88737,-0.92697 -1.55206,-1.35458 -2.71245,-1.74481 -1.03709,-0.34877 -2.53292,-0.39604 -3.59088,-0.11347 -1.94173,0.5186 -3.51308,1.84089 -4.34381,3.65545 -0.57665,1.2596 -0.56212,0.85649 -0.56409,15.72779 l -0.002,13.73342 -6.91001,0.0446 c -7.27825,0.047 -7.98953,0.0854 -11.29067,0.61093 -1.46302,0.23293 -4.03079,0.78051 -5.22692,1.11453 l -0.74193,0.20718 -0.9381,-1.89455 c -3.96624,-8.00934 -10.50466,-15.01198 -18.12551,-19.41217 -5.63735,-3.25493 -11.71883,-5.1426 -18.49159,-5.74007 -2.38917,-0.21075 -6.4509,-0.20647 -7.51014,0.008 -2.53827,0.51376 -4.52197,2.47556 -5.06517,5.00934 v 2e-4 c -0.3161,1.47449 -0.12797,2.89393 0.57163,4.31305 0.73926,1.49957 2.04707,2.61608 3.81741,3.25903 0.54409,0.1976 0.93039,0.22658 3.99219,0.29844 3.55161,0.0833 4.87503,0.21079 7.13755,0.68733 4.72198,0.99455 9.03738,3.01615 12.80225,5.99736 1.33379,1.05616 4.05438,3.77045 5.11222,5.1004 1.51974,1.91068 3.1124,4.39001 4.15659,6.4708 l 0.51682,1.02998 -0.32004,0.16541 c -1.13386,0.58635 -4.37862,2.817147 -6.14892,4.227487 -3.01161,2.39926 -6.35457,5.7156 -8.71919,8.64972 -6.95895,8.63497 -11.33369,19.1536 -12.60158,30.2997 -0.55695,4.89619 -0.47616,10.77761 0.21288,15.48884 2.40243,16.42628 11.32963,30.79541 24.69388,39.74738 1.02422,0.68606 2.5352,1.62549 3.35763,2.08746 1.18753,0.66705 1.48145,0.87547 1.42865,1.01307 -0.35529,0.92586 -2.64507,4.45972 -3.93292,6.06968 -2.94774,3.68503 -6.70765,6.73264 -10.74676,8.71043 -4.67045,2.28693 -8.7021,3.16982 -14.75872,3.23214 -2.63523,0.0271 -2.92339,0.0481 -3.54626,0.25892 -2.11401,0.71556 -3.68586,2.29294 -4.33811,4.35338 -0.2529,0.79891 -0.30396,2.45506 -0.10206,3.31179 0.29705,1.26045 0.81291,2.17371 1.76621,3.12722 0.96062,0.96083 1.73885,1.42091 2.90192,1.71548 2.19206,0.5552 8.51095,0.27136 12.80977,-0.57529 8.82979,-1.739 16.39396,-5.79201 22.84538,-12.241 3.74072,-3.73932 6.6234,-7.71108 8.86689,-12.21697 l 0.65453,-1.31478 0.85194,0.18986 c 1.26791,0.28252 3.6694,0.68253 5.32082,0.88636 1.21576,0.15007 2.65201,0.18729 8.57883,0.22205 l 7.11861,0.0418 v 13.79617 c 0,13.3895 0.006,13.81993 0.20554,14.60044 0.87751,3.43102 4.22481,5.53018 7.66925,4.8095 1.88081,-0.39353 3.58511,-1.70334 4.41959,-3.39613 0.77793,-1.5781 0.73954,-0.74166 0.74152,-16.07676 l 0.002,-13.73607 9.152505,-0.0377 c 9.89274,-0.0409 9.7789,-0.0354 13.53317,-0.66207 1.87955,-0.31371 3.36022,-0.64595 5.32774,-1.1958 0.8077,-0.22573 1.50002,-0.41049 1.53846,-0.41049 0.0385,0 0.0703,1.1382 0.0711,2.52932 0.002,3.70892 0.28736,6.53666 0.99474,9.83983 0.82686,3.86102 1.98825,7.16429 3.76913,10.72028 3.04509,6.0803 7.52232,11.36744 13.45902,15.89402 1.16314,0.88686 2.14607,1.41653 3.08302,1.66109 0.82758,0.21591 2.33102,0.21467 3.17449,-0.002 2.13126,-0.54883 3.98654,-2.30507 4.64468,-4.39698 0.34459,-1.09525 0.31939,-2.82261 -0.0581,-3.96346 -0.51919,-1.56933 -1.25031,-2.42171 -3.62082,-4.22138 -1.55225,-1.17845 -4.50139,-4.0747 -5.725,-5.62212 -3.82072,-4.83183 -6.00468,-10.32429 -6.57855,-16.54489 -0.13674,-1.48117 -0.13576,-4.68705 0.002,-6.15381 0.21655,-2.31102 0.64277,-4.65393 1.14671,-6.30171 l 0.21003,-0.68652 1.17136,-0.84949 c 4.36804,-3.16852 9.00955,-7.93795 12.38314,-12.7245 l 0.88657,-1.25773 1.40807,-0.0632 c 4.84266,-0.21711 9.88125,-1.65035 14.16326,-4.02866 l 0.76046,-0.4223 0.20718,0.49421 c 3.28665,7.84036 10.61126,12.21425 20.54034,12.26566 1.46014,0.008 1.96092,-0.0282 2.50325,-0.17866 3.14918,-0.87342 4.92112,-3.65336 4.86491,-6.46835 z m -24.91084,-34.83643 c 0.0396,2.19414 -0.28986,4.42602 -1.01836,6.61502 -1.00796,3.02867 -3.03421,6.17318 -5.33183,8.27469 -1.42262,1.3012 -3.45941,2.67296 -5.05089,3.40183 -1.29226,0.59184 -1.21123,0.5904 -1.03447,0.0196 3.33052,-10.75595 3.62755,-21.99456 0.86681,-32.79867 -0.23109,-0.90436 -0.55222,-2.06603 -0.71382,-2.58147 -0.18625,-0.59405 -0.25061,-0.93645 -0.1756,-0.93566 0.20047,0.003 2.16333,0.97939 2.93451,1.46043 5.9633,3.71973 9.40489,9.96186 9.52365,16.54427 z m -22.76429,2.13432 c -0.31285,8.51604 -2.93534,16.82788 -7.70714,23.97925 -7.03023,10.53604 -18.06228,17.26052 -30.108,18.35204 -0.78429,0.0711 -8.43809,0.10837 -22.112005,0.10797 -22.43831,-8e-4 -21.93327,0.01 -25.13676,-0.53027 -6.70863,-1.13068 -13.37266,-4.27966 -18.9308,-8.94572 -1.21711,-1.02176 -3.96337,-3.76965 -4.96554,-4.96839 -5.23964,-6.2674 -8.70358,-13.73078 -10.04476,-21.64265 -0.14101,-0.83181 -0.2872,-1.75846 -0.32493,-2.05915 l -0.0686,-0.54656 42.85179,-0.0271 42.851575,-0.0269 0.8334,-0.29457 c 2.07176,-0.73211 3.53743,-2.19433 4.19204,-4.18226 0.35263,-1.07086 0.39693,-2.76733 0.0982,-3.75752 -0.5584,-1.85089 -1.80907,-3.3327 -3.48657,-4.13072 -1.40214,-0.66702 2.16149,-0.61751 -44.479065,-0.61909 -41.86231,-0.002 -42.5291,-0.005 -42.5291,-0.20168 0,-0.36452 0.52286,-2.85449 0.89756,-4.27413 4.31257,-16.33914 17.03574,-28.63899 32.68765,-31.60022 3.25537,-0.61587 2.01416,-0.58751 25.71042,-0.58751 20.124035,0 21.790935,0.0133 23.021995,0.18334 6.03657,0.8338 11.03639,2.57888 15.87426,5.54083 4.42985,2.71214 8.53149,6.45437 11.73153,10.70338 3.61879,4.80504 6.21693,10.23509 7.71039,16.11464 0.81937,3.22575 1.29132,6.49446 1.42478,9.75345 0.05,1.22212 0.0524,2.44295 0.008,3.65953 z" /></g></svg>
